<svg xmlns="http://www.w3.org/2000/svg" version="1.1" xmlns:xlink="http://www.w3.org/1999/xlink" xmlns:svgjs="http://svgjs.dev/svgjs" width="254" height="253"><svg width="254" height="253" viewBox="0 0 254 253" fill="none" xmlns="http://www.w3.org/2000/svg">
<path d="M105.067 1.53334C64.5336 9.26667 32.1336 33.8 14.0002 70.7333C5.8669 87.2667 2.13357 101.267 1.0669 119.133C-2.26643 175.667 32.5336 227.667 85.6002 245.8C101.6 251.267 112.134 253 128.667 253C151.067 253 174.534 246.333 194.934 234.067C204.667 228.333 223.334 210.6 230.667 200.467C238.534 189.267 245.334 175.267 249.6 161.4C252.934 150.6 253.2 147.933 253.2 126.333C253.2 104.733 252.934 102.067 249.6 91.2667C236.134 47.4 202.667 14.8667 159.334 3.66667C145.067 -0.0666616 119.067 -1.13333 105.067 1.53334ZM216.667 55C216.667 55 187.467 203.4 185.734 210.333C185.067 210.333 166.4 202.6 144.267 193.133C122.134 183.667 102.134 175.4 102.134 175.4L86.4002 213.933C80.5336 191.267 73.0669 162.333 73.0669 162.333C73.2002 162.333 102.134 175.4 102.134 175.4L211.334 61.2667L73.0669 162.333C56.2669 155.133 10.2669 134.6 10.2669 134.6C10.2669 134.6 171.2 72.2 216.667 55Z" fill="black"></path>
</svg><style>@media (prefers-color-scheme: light) { :root { filter: none; } }
@media (prefers-color-scheme: dark) { :root { filter: invert(100%); } }
</style></svg>